<svg width="36" height="36" viewBox="0 0 36 36" fill="none" xmlns="http://www.w3.org/2000/svg">
<path d="M31.5 9H25.5V7.5C25.5 6.30653 25.0259 5.16193 24.182 4.31802C23.3381 3.47411 22.1935 3 21 3H15C13.8065 3 12.6619 3.47411 11.818 4.31802C10.9741 5.16193 10.5 6.30653 10.5 7.5V9H4.5C4.10218 9 3.72064 9.15804 3.43934 9.43934C3.15804 9.72065 3 10.1022 3 10.5V16.5C3.00338 17.1291 3.13861 17.7504 3.39698 18.324C3.65535 18.8976 4.0311 19.4106 4.5 19.83V28.5C4.5 29.6935 4.97411 30.8381 5.81802 31.682C6.66193 32.5259 7.80653 33 9 33H27C28.1935 33 29.3381 32.5259 30.182 31.682C31.0259 30.8381 31.5 29.6935 31.5 28.5V19.83C31.9689 19.4106 32.3447 18.8976 32.603 18.324C32.8614 17.7504 32.9966 17.1291 33 16.5V10.5C33 10.1022 32.842 9.72065 32.5607 9.43934C32.2794 9.15804 31.8978 9 31.5 9ZM13.5 7.5C13.5 7.10218 13.658 6.72064 13.9393 6.43934C14.2206 6.15804 14.6022 6 15 6H21C21.3978 6 21.7794 6.15804 22.0607 6.43934C22.342 6.72064 22.5 7.10218 22.5 7.5V9H13.5V7.5ZM28.5 28.5C28.5 28.8978 28.342 29.2794 28.0607 29.5607C27.7794 29.842 27.3978 30 27 30H9C8.60218 30 8.22064 29.842 7.93934 29.5607C7.65804 29.2794 7.5 28.8978 7.5 28.5V21H10.5V22.5C10.5 22.8978 10.658 23.2794 10.9393 23.5607C11.2206 23.842 11.6022 24 12 24C12.3978 24 12.7794 23.842 13.0607 23.5607C13.342 23.2794 13.5 22.8978 13.5 22.5V21H22.5V22.5C22.5 22.8978 22.658 23.2794 22.9393 23.5607C23.2206 23.842 23.6022 24 24 24C24.3978 24 24.7794 23.842 25.0607 23.5607C25.342 23.2794 25.5 22.8978 25.5 22.5V21H28.5V28.5ZM30 16.5C30 16.8978 29.842 17.2794 29.5607 17.5607C29.2794 17.842 28.8978 18 28.5 18H25.5V16.5C25.5 16.1022 25.342 15.7206 25.0607 15.4393C24.7794 15.158 24.3978 15 24 15C23.6022 15 23.2206 15.158 22.9393 15.4393C22.658 15.7206 22.5 16.1022 22.5 16.5V18H13.5V16.5C13.5 16.1022 13.342 15.7206 13.0607 15.4393C12.7794 15.158 12.3978 15 12 15C11.6022 15 11.2206 15.158 10.9393 15.4393C10.658 15.7206 10.5 16.1022 10.5 16.5V18H7.5C7.10218 18 6.72064 17.842 6.43934 17.5607C6.15804 17.2794 6 16.8978 6 16.5V12H30V16.5Z" fill="#2E90D1"/>
</svg>
