<svg width="120" height="40" viewBox="0 0 120 40" fill="none" xmlns="http://www.w3.org/2000/svg">
<g clip-path="url(#clip0_1017_6509)">
<path fill-rule="evenodd" clip-rule="evenodd" d="M47.5192 26.3284V28.5149H46.4935V30.1246H47.5192V33.0621C47.5192 35.49 47.949 35.5436 51.7602 35.5436V33.5449H51.3029C50.4991 33.5449 50.402 33.317 50.402 32.6731V30.1246H51.788V28.5149H50.402V26.3284H47.5192ZM56.9162 30.1916C57.6508 30.1916 58.1359 30.9294 58.1359 31.9621C58.1359 33.29 57.6647 33.867 56.8884 33.867C56.1539 33.867 55.6412 33.29 55.6412 31.9621C55.6412 31.1708 55.9321 30.1916 56.9162 30.1916ZM52.7583 32.1096C52.7583 34.5108 54.56 35.7448 56.8884 35.7448C59.2169 35.7448 61.0186 34.5375 61.0186 31.9621C61.0186 29.7758 59.4385 28.3136 56.8746 28.3136C54.4214 28.3136 52.7583 29.6685 52.7583 32.1096ZM70.6233 30.3124C71.538 30.3124 71.843 31.0499 71.843 31.8281C71.843 32.5791 71.5105 33.2766 70.6233 33.2766C69.8334 33.2766 69.487 32.606 69.487 31.9086C69.487 30.9964 69.7503 30.3124 70.6233 30.3124ZM66.9784 35.9058C67.1168 36.9385 68.1978 37.9312 70.762 37.9312C74.3378 37.9312 74.5872 36.2814 74.5872 34.1754V28.5149H72.051V29.4403C71.8008 29.0984 71.4709 28.8182 71.0881 28.6224C70.7052 28.4267 70.2802 28.3209 69.8473 28.3136C67.4633 28.3136 66.6041 30.1512 66.6041 31.8817C66.6041 33.6792 67.7544 35.2083 69.7642 35.2083C70.8035 35.2083 71.4273 34.8461 71.843 34.4437V35.0205C71.843 36.0266 71.5105 36.3888 70.6789 36.3888C70.1245 36.3888 69.9165 36.1472 69.8749 35.9058H66.9784ZM79.9926 30.1916C80.7271 30.1916 81.2123 30.9294 81.2123 31.9621C81.2123 33.29 80.741 33.867 79.9648 33.867C79.2302 33.867 78.7175 33.29 78.7175 31.9621C78.7175 31.1708 79.0084 30.1916 79.9926 30.1916ZM75.8346 32.1096C75.8346 34.5108 77.6363 35.7448 79.9648 35.7448C82.2933 35.7448 84.0949 34.5375 84.0949 31.9621C84.0949 29.7758 82.5149 28.3136 79.9509 28.3136C77.4978 28.3136 75.8346 29.6685 75.8346 32.1096Z" fill="#040404"/>
<path d="M36.9781 39.9999H33.3376C33.0944 39.9956 32.8579 39.9217 32.6581 39.7874H36.2986C36.4984 39.9217 36.7349 39.9956 36.9781 39.9999Z" fill="#858585"/>
<path d="M36.2985 39.7874H32.658L28.8294 37.3101H32.4698L36.2985 39.7874Z" fill="#808080"/>
<path d="M32.4698 37.31H28.8293C28.2741 37.1363 27.9127 37.0657 27.6109 37.0657H31.2514C31.5532 37.0657 31.9146 37.1363 32.4698 37.31Z" fill="#858585"/>
<path d="M29.3002 1.78292C29.3796 1.73139 29.4588 1.67955 29.5395 1.63008C29.5872 1.60085 29.636 1.57347 29.6842 1.54496C29.7574 1.5016 29.8303 1.45768 29.9045 1.41601C29.9572 1.38639 30.0111 1.35869 30.0643 1.32993C30.1356 1.29142 30.2065 1.25227 30.2787 1.21531C30.3125 1.19802 30.3469 1.18186 30.3808 1.16491C30.4669 1.12195 30.5533 1.0795 30.6405 1.03876C30.6855 1.01773 30.7311 0.997686 30.7764 0.977255C30.854 0.942285 30.9318 0.907829 31.0102 0.874632C31.059 0.854001 31.108 0.833945 31.1571 0.814001C31.2339 0.782758 31.3112 0.752372 31.3888 0.722843C31.4384 0.703987 31.488 0.685233 31.5378 0.667083C31.6181 0.63785 31.6989 0.609942 31.7799 0.582557C31.8271 0.566617 31.874 0.550266 31.9214 0.534956C32.0144 0.504907 32.1081 0.476703 32.202 0.44909C32.2377 0.438605 32.273 0.427252 32.3088 0.417127C32.4387 0.380363 32.5693 0.345907 32.7007 0.313759C32.7271 0.307316 32.7539 0.301925 32.7804 0.295674C32.888 0.270257 32.996 0.245818 33.1046 0.223614C33.1308 0.218262 33.1572 0.213347 33.1834 0.208175C33.2938 0.186434 33.4047 0.166342 33.516 0.147898C33.5369 0.144442 33.5578 0.140599 33.5787 0.137259C33.704 0.11731 33.8298 0.0996098 33.9562 0.0841586C33.9853 0.0805481 34.0145 0.0772902 34.0437 0.0739113C34.1611 0.0603219 34.2788 0.0485082 34.3968 0.0384704C34.4105 0.0373335 34.4241 0.035823 34.4378 0.0347378C34.566 0.0245546 34.6948 0.0171852 34.8238 0.0114926C34.8545 0.0101431 34.8852 0.00894382 34.9159 0.00789471C35.0467 0.00321788 35.1777 0 35.3092 0H31.6687C31.5372 0 31.4062 0.00321893 31.2754 0.00789471C31.2447 0.00899365 31.214 0.0101368 31.1833 0.0114926C31.0543 0.0171915 30.9255 0.0245452 30.7973 0.0347378C30.7836 0.0358293 30.77 0.0373335 30.7563 0.0384704C30.6382 0.0482998 30.5206 0.0603208 30.4033 0.0739029C30.3741 0.0772818 30.3448 0.080546 30.3157 0.0841565C30.1894 0.0998056 30.0636 0.117506 29.9383 0.137257C29.9173 0.140597 29.8964 0.144439 29.8755 0.147896C29.7642 0.166282 29.6533 0.186374 29.5429 0.208173C29.5167 0.213344 29.4904 0.218254 29.4641 0.223612C29.4476 0.227004 29.4308 0.229914 29.4143 0.233383C29.3223 0.252619 29.2311 0.274136 29.1399 0.295671C29.1134 0.301923 29.0866 0.307314 29.0602 0.313757C28.9288 0.345804 28.7981 0.38026 28.6683 0.417125C28.6325 0.42725 28.5972 0.438598 28.5615 0.449088C28.4676 0.476701 28.3739 0.504905 28.2809 0.534954C28.2335 0.55027 28.1865 0.566622 28.1394 0.582567C28.0584 0.60995 27.9776 0.637846 27.8974 0.667066C27.8475 0.685235 27.7979 0.703989 27.7483 0.722865C27.6707 0.752387 27.5935 0.782758 27.5166 0.81398C27.4675 0.833948 27.4185 0.854006 27.3696 0.874668C27.2913 0.907839 27.2135 0.942263 27.136 0.977207C27.0906 0.997656 27.0451 1.01771 27 1.03877C26.9127 1.07956 26.8262 1.12205 26.74 1.16508C26.7062 1.18197 26.6719 1.19804 26.6383 1.21527C26.632 1.21852 26.6255 1.22148 26.6191 1.22475C26.5532 1.25865 26.4886 1.29493 26.4235 1.33013C26.3703 1.35881 26.3166 1.38647 26.264 1.41601C26.1898 1.45768 26.1169 1.50162 26.0437 1.54497C25.9956 1.57348 25.9467 1.60085 25.899 1.63008C25.8183 1.67956 25.7391 1.7314 25.6597 1.78293C25.6208 1.80817 25.5811 1.83225 25.5425 1.85799C25.4251 1.93624 25.3093 2.0167 25.1949 2.09937H28.8354C28.9497 2.01666 29.0656 1.9362 29.183 1.85799C29.2216 1.83224 29.2613 1.80817 29.3002 1.78292Z" fill="#8F8F8F"/>
<path d="M25.3384 38.1288H21.6979C19.3627 38.1252 17.062 37.5838 14.9858 36.5492C12.9097 35.5147 11.1178 34.0167 9.75835 32.1791C8.40554 30.3714 7.49298 28.2908 7.08905 26.0933H10.7295C11.1335 28.2908 12.046 30.3714 13.3988 32.1791C14.7583 34.0167 16.5502 35.5147 18.6263 36.5492C20.7025 37.5838 23.0032 38.1252 25.3384 38.1288Z" fill="#858585"/>
<path d="M10.7295 26.0932H7.08905C6.69098 25.9928 6.28241 25.9366 5.8712 25.9255H9.51169C9.9229 25.9365 10.3315 25.9928 10.7295 26.0932Z" fill="#858585"/>
<path d="M35.3092 0C36.2074 0.000474957 37.102 0.109637 37.9721 0.324946C43.8526 1.77537 47.4315 7.66892 45.9657 13.4886C45.579 15.0557 44.8344 16.519 43.7866 17.771C42.7388 19.0231 41.4145 20.032 39.9109 20.7236C40.5906 24.3024 39.904 27.9983 37.9788 31.1238C36.9927 32.7144 36.5848 32.3876 36.604 34.3382L37.8113 38.8221C38.0029 39.535 37.5529 40 36.9781 40C36.7349 39.9957 36.4984 39.9218 36.2986 39.7874L32.4698 37.3101C31.9146 37.1364 31.5532 37.0658 31.2514 37.0658C30.694 37.0658 30.3398 37.3067 29.3429 37.5839C28.0409 37.9456 26.693 38.1291 25.3384 38.1288C23.0032 38.1253 20.7025 37.5838 18.6263 36.5493C16.5502 35.5147 14.7583 34.0167 13.3988 32.1791C12.046 30.3714 11.1335 28.2908 10.7295 26.0933C10.3315 25.9929 9.9229 25.9366 9.5117 25.9256L4.80116 26.8407C4.71621 26.8576 4.62974 26.8662 4.54303 26.8666C3.69607 26.8666 3.3586 25.9697 3.90884 25.2463L6.72559 21.5459C7.34408 19.9828 6.99271 19.9487 6.65569 18.3675C5.39668 12.438 7.86014 6.09062 13.3203 2.62327C15.607 1.16461 18.2648 0.344012 21.0018 0.251591C23.7389 0.15917 26.4493 0.798498 28.8354 2.09937C30.7025 0.741321 32.9737 0.00480628 35.3092 0Z" fill="#E8E8E8"/>
<path d="M13.8404 2.30835C13.9807 2.22685 14.1217 2.14773 14.2635 2.07098C14.2874 2.05813 14.3113 2.0458 14.3352 2.0331C14.4437 1.9753 14.5529 1.9198 14.6622 1.86487C14.7353 1.82819 14.8084 1.7921 14.8818 1.7566C14.9697 1.71418 15.0579 1.67276 15.1464 1.63235C15.2201 1.59853 15.2938 1.5649 15.3678 1.53234C15.4571 1.4931 15.5466 1.45529 15.6363 1.41788C15.7101 1.38709 15.7839 1.35623 15.858 1.32667C15.949 1.29037 16.0405 1.25574 16.1319 1.22129C16.2054 1.19364 16.2787 1.16562 16.3524 1.13916C16.4457 1.10567 16.5394 1.07412 16.6331 1.04254C16.7056 1.0181 16.7779 0.993042 16.8506 0.969746C16.9473 0.938773 17.0444 0.910029 17.1414 0.881066C17.2116 0.860108 17.2817 0.838245 17.3521 0.818341C17.4544 0.789404 17.5572 0.762993 17.6599 0.736265C17.7254 0.719195 17.7909 0.700936 17.8566 0.684764C17.9736 0.655975 18.091 0.630039 18.2084 0.604103C18.26 0.592699 18.3114 0.579901 18.3631 0.569043C18.5186 0.536386 18.6744 0.506736 18.8304 0.479025C18.8745 0.471206 18.9186 0.464146 18.9626 0.456719C19.0803 0.436893 19.198 0.418446 19.3159 0.401376C19.3631 0.394567 19.4102 0.387621 19.4574 0.381254C19.6038 0.361498 19.7503 0.343465 19.8969 0.327991C19.9082 0.326796 19.9196 0.325222 19.9309 0.324046C20.0884 0.307785 20.2459 0.294666 20.4035 0.283309C20.4489 0.280039 20.4943 0.277463 20.5397 0.274598C20.6577 0.267151 20.7758 0.261069 20.8938 0.256351C20.9402 0.254507 20.9865 0.252451 21.0328 0.251025C21.1906 0.246162 21.3484 0.24292 21.5061 0.24292H17.8656C17.708 0.242914 17.5501 0.246159 17.3923 0.251025C17.346 0.252451 17.2997 0.254507 17.2533 0.256351C17.1353 0.261061 17.0172 0.267143 16.8992 0.274598C16.8538 0.277463 16.8084 0.280046 16.763 0.283309C16.6054 0.294668 16.4477 0.307788 16.2902 0.324062C16.2793 0.325186 16.2684 0.326708 16.2575 0.327859C16.1105 0.343362 15.9636 0.361447 15.8169 0.381254C15.7698 0.387609 15.7227 0.394534 15.6756 0.401338C15.5575 0.418403 15.4395 0.436884 15.3217 0.456783C15.2778 0.464172 15.234 0.471194 15.1902 0.478968C15.0381 0.505972 14.8862 0.5346 14.7347 0.566306C14.7306 0.567161 14.7266 0.568214 14.7225 0.569068C14.6715 0.579772 14.6208 0.592396 14.5699 0.603633C14.4518 0.629717 14.3337 0.655834 14.2159 0.684803C14.1507 0.700845 14.0858 0.718977 14.0207 0.735905C13.9175 0.762747 13.8143 0.789296 13.7114 0.81838C13.6412 0.838245 13.5713 0.86007 13.5012 0.880976C13.4041 0.909958 13.307 0.938721 13.2102 0.969721C13.1375 0.993029 13.0651 1.01811 12.9925 1.04257C12.8989 1.07414 12.8052 1.10567 12.712 1.13915C12.6382 1.16562 12.5649 1.19363 12.4914 1.22129C12.4 1.25574 12.3085 1.29035 12.2175 1.32667C12.1434 1.35622 12.0696 1.38708 11.9958 1.41787C11.9061 1.45528 11.8166 1.49309 11.7274 1.53233C11.6533 1.56489 11.5796 1.59851 11.5059 1.63234C11.4175 1.67294 11.3293 1.71436 11.2413 1.75659C11.1679 1.79199 11.0947 1.82808 11.0218 1.86486C10.9776 1.88704 10.933 1.9077 10.889 1.93035C10.824 1.96379 10.7594 1.99863 10.6947 2.03309C10.6708 2.0458 10.6469 2.05812 10.6231 2.07097C10.4812 2.14753 10.3401 2.22665 10.1999 2.30835C10.1692 2.32615 10.1387 2.34429 10.1081 2.36233C9.96454 2.44704 9.82157 2.53342 9.67984 2.62336C4.21964 6.09072 1.75619 12.4381 3.0152 18.3676C3.35222 19.9488 3.70359 19.9829 3.0851 21.546L0.268349 25.2464C-0.28189 25.9698 0.055577 26.8667 0.902536 26.8667H4.54302C3.69607 26.8667 3.35859 25.9698 3.90883 25.2464L6.72558 21.546C7.34408 19.9829 6.9927 19.9488 6.65568 18.3676C5.39668 12.4381 7.86013 6.09072 13.3203 2.62336C13.462 2.53342 13.605 2.44704 13.7486 2.36233C13.7792 2.34429 13.8097 2.32616 13.8404 2.30835Z" fill="#858585"/>
<path fill-rule="evenodd" clip-rule="evenodd" d="M34.285 7.10314C36.2418 10.0101 37.0929 13.4853 36.6922 16.933C36.2916 20.3807 34.6642 23.5861 32.0891 25.9998C29.5141 28.4134 26.1516 29.885 22.5783 30.1621C19.005 30.4393 15.4433 29.5048 12.5039 27.5188C10.8948 26.4318 11.2635 26.0409 9.21402 25.9423L4.4317 26.8848C3.38327 27.0912 2.90494 26.0983 3.51238 25.306L6.34947 21.6055C6.96689 20.0464 6.60892 20.0158 6.25545 18.4453C5.48709 15.0294 5.98013 11.4609 7.64883 8.36039C9.31753 5.25988 12.0563 2.82351 15.3889 1.47498C18.7215 0.126453 22.437 -0.048925 25.8894 0.979349C29.3417 2.00762 32.3125 4.1745 34.285 7.10314V7.10314Z" fill="#E42125"/>
<path fill-rule="evenodd" clip-rule="evenodd" d="M36.4332 0.325139C38.9604 0.935244 41.1897 2.37719 42.7387 4.40378C44.2878 6.43036 45.0602 8.91536 44.9236 11.4327C44.7869 13.9501 43.7497 16.3431 41.9897 18.2014C40.2298 20.0598 37.8567 21.2677 35.2773 21.6181C33.8655 21.81 33.8619 21.4253 32.7207 22.3542L30.6575 25.1454C30.2051 25.7572 29.4432 25.4579 29.3613 24.7453L28.9796 21.4177C28.5113 20.2927 28.3052 20.4475 27.3143 19.781C25.1594 18.331 23.5978 16.1959 22.901 13.747C22.2042 11.2981 22.4164 8.69028 23.5006 6.37708C24.5848 4.06388 26.4724 2.19163 28.8352 1.08593C31.198 -0.0197715 33.8865 -0.288974 36.4332 0.325139Z" fill="#2E90D1"/>
<path fill-rule="evenodd" clip-rule="evenodd" d="M14.6655 12.4665C17.4005 10.3194 20.8221 9.16 24.3436 9.18698C27.8651 9.21396 31.2673 10.4257 33.9669 12.6144C36.6664 14.8032 38.4952 17.8326 39.1397 21.1833C39.7842 24.5341 39.2043 27.9975 37.4994 30.9798C36.5662 32.6123 36.134 32.3035 36.2438 34.2517L37.6833 38.6778C37.9986 39.6481 37.045 40.2015 36.1832 39.7083L32.1578 37.4032C30.5209 36.9784 30.5265 37.32 28.9771 37.8144C25.607 38.8897 21.954 38.7877 18.6535 37.5262C15.353 36.2648 12.6138 33.9236 10.9122 30.9098C9.2106 27.896 8.6543 24.4004 9.34003 21.0308C10.0258 17.6611 11.9102 14.6307 14.6655 12.4665Z" fill="#78258D"/>
<path d="M35.3395 18.1123L34.2518 18.7439H26.7472L28.1611 18.1123H35.3395Z" fill="#808080"/>
<path d="M28.1898 18.2942L26.6176 19.0587C26.6005 19.0563 26.5831 19.0585 26.5673 19.0652L28.1396 18.3007C28.1554 18.294 28.1728 18.2917 28.1898 18.2942Z" fill="#858585"/>
<path d="M22.6478 27.2313L21.0755 27.9958C22.1617 27.0901 23.1535 26.0836 24.0369 24.9906L25.6091 24.2261C24.7258 25.319 23.7339 26.3255 22.6478 27.2313Z" fill="#858585"/>
<path d="M31.5348 32.6969L29.9625 33.4615C29.7417 33.5779 29.4954 33.6416 29.2441 33.6473C28.5805 33.6473 27.8933 33.1468 26.5434 32.1582C24.8942 30.9537 21.158 28.1729 21.0755 27.9958L22.6478 27.2312C22.7303 27.4083 26.4665 30.1892 28.1157 31.3936C29.4655 32.3823 30.1528 32.8827 30.8163 32.8827C31.0677 32.8771 31.314 32.8134 31.5348 32.6969Z" fill="#858585"/>
<path d="M25.6091 24.2261C26.2121 24.5587 31.7337 28.6365 33.4984 29.8921C34.1693 30.3684 34.209 30.699 33.5462 31.2324C32.1765 32.3373 31.5093 32.8828 30.8163 32.8828C30.1528 32.8828 29.4655 32.3824 28.1157 31.3937C26.4665 30.1893 22.7303 27.4084 22.6478 27.2313C23.7339 26.3255 24.7258 25.319 25.6091 24.2261Z" fill="white"/>
<path d="M12.1449 28.2307L10.5727 28.9953C10.8232 28.8201 12.1742 27.8735 12.9609 27.411C16.2199 25.498 19.1587 23.2623 21.0941 20.0091C21.1854 19.8556 21.2748 19.6982 21.3639 19.5387C21.5572 19.1538 21.7252 18.7575 21.8667 18.352C22.2395 17.3493 22.5259 16.3184 22.723 15.27L24.2457 14.1121C24.2083 14.4132 24.2974 14.0762 24.0281 15.691C23.941 16.2135 23.6319 17.0915 23.439 17.5875C23.2681 18.046 23.1059 19.0848 22.723 19.5857C20.4162 22.6036 17.7922 24.7335 14.5332 26.6464C13.7465 27.1089 12.3955 28.0555 12.1449 28.2307Z" fill="#858585"/>
<path d="M14.3892 31.801L12.8169 32.5655L10.5592 29.0682L12.1315 28.3037L14.3892 31.801Z" fill="#808080"/>
<path d="M35.1219 14.1123L35.3395 18.1123H28.1611C28.1142 18.1079 27.7416 19.1779 27.4663 19.8923C26.8484 21.4903 26.3003 22.2953 25.2642 23.6375C23.7716 25.5682 21.8789 27.2509 19.6754 28.7387C18.4504 29.5673 15.7323 31.0689 14.7505 31.6023C14.5257 31.7282 14.396 31.7974 14.3892 31.801L12.1315 28.3038C12.1235 28.2924 12.1205 28.2784 12.123 28.2648C12.1255 28.2512 12.1333 28.2391 12.1449 28.231C12.3955 28.0558 13.7465 27.1092 14.5332 26.6467C17.7922 24.7338 20.731 22.498 22.6664 19.2448C22.7577 19.0913 22.8441 18.9323 22.9362 18.7745C23.2959 18.1579 23.6472 16.8771 23.844 15.9303C24.1771 14.3266 24.2083 14.4134 24.2457 14.1123C24.25 14.0853 35.1219 14.1123 35.1219 14.1123Z" fill="white"/>
<path d="M12.1315 28.3038L10.5593 29.0683C10.5513 29.0569 10.5482 29.0429 10.5507 29.0293C10.5532 29.0157 10.5611 29.0036 10.5727 28.9955L12.1449 28.231C12.1333 28.239 12.1255 28.2511 12.123 28.2647C12.1205 28.2783 12.1235 28.2923 12.1315 28.3038Z" fill="#858585"/>
<path d="M32.1387 6.75293L30.5664 7.51745H29.3372L30.9095 6.75293H32.1387Z" fill="#808080"/>
<path d="M28.7486 11.676L27.1764 12.4405C26.5655 12.7353 25.8918 12.8873 25.2092 12.8843C25.199 12.8843 25.1885 12.8843 25.1783 12.8842C22.7093 12.8685 20.8073 11.0165 20.7995 8.62142C20.7987 7.83925 21.0229 7.07232 21.447 6.40649C21.8711 5.74067 22.4783 5.20223 23.2007 4.85147L24.7729 4.08691C24.0506 4.43768 23.4434 4.97611 23.0193 5.64194C22.5952 6.30777 22.371 7.0747 22.3717 7.85687C22.3796 10.252 24.2816 12.1039 26.7506 12.1197C26.7608 12.1198 26.7713 12.1198 26.7815 12.1198C27.464 12.1228 28.1378 11.9708 28.7486 11.676Z" fill="#858585"/>
<path d="M32.1075 3.64722L32.1387 6.75282H30.9094C31.0187 7.12288 31.0762 7.50547 31.0803 7.89034C31.1063 10.2677 29.2195 12.1198 26.7815 12.1198C26.7713 12.1198 26.7608 12.1198 26.7506 12.1197C24.2816 12.1039 22.3796 10.252 22.3717 7.85687C22.37 6.75262 22.8173 5.69206 23.6169 4.90437C24.4165 4.11667 25.5043 3.66509 26.6451 3.64722C26.7763 3.64722 26.9077 3.65115 27.0369 3.66098L32.1075 3.64722Z" fill="white"/>
<path d="M50.7029 13.5796V20.9559H55.1764V23.2009H47.4444V13.5796H50.7029Z" fill="#040404"/>
<path d="M59.2219 18.3502H56.4605C56.4605 17.584 56.7734 17.0005 57.3993 16.5996C58.0251 16.1987 59.0285 15.9983 60.4092 15.9983C60.8966 15.9934 61.3835 16.0247 61.8659 16.0918C62.2161 16.1365 62.5565 16.2357 62.8738 16.3858C63.1054 16.4985 63.3193 16.6425 63.509 16.8134C63.6791 16.9803 63.8005 17.1877 63.861 17.4147C63.929 17.6376 63.9775 17.8655 64.006 18.0963C64.0318 18.3628 64.0434 18.6304 64.0406 18.898V22.1719C64.0332 22.3477 64.0542 22.5236 64.1027 22.6931C64.1734 22.8442 64.2856 22.9736 64.4271 23.0672V23.2009H61.4586L61.3205 22.4526C60.6209 23.0852 59.7143 23.4014 58.6005 23.4013C57.864 23.4013 57.2496 23.2209 56.7572 22.8602C56.2647 22.4993 56.0185 21.9759 56.0185 21.2899C56.0004 20.8486 56.1339 20.4139 56.3983 20.0539C56.6364 19.7394 56.9692 19.5037 57.3509 19.379C57.7572 19.2483 58.1725 19.1456 58.5937 19.0717C59.0045 18.9961 59.4194 18.9426 59.8363 18.9114C60.1639 18.8969 60.4864 18.8268 60.7889 18.7043C61.0421 18.593 61.1687 18.4394 61.1687 18.2433C61.1687 17.8603 60.8557 17.6687 60.2298 17.6687C59.613 17.6687 59.2771 17.8958 59.2219 18.3502ZM61.1687 20.1007C60.8676 20.2249 60.5525 20.3146 60.2298 20.3679C59.9053 20.4188 59.5909 20.518 59.2977 20.6619C59.1955 20.7199 59.1121 20.8045 59.0572 20.9061C59.0023 21.0077 58.978 21.1222 58.9872 21.2365C58.9863 21.3226 59.0088 21.4074 59.0524 21.4825C59.096 21.5575 59.1592 21.6202 59.2356 21.6641C59.4353 21.7798 59.666 21.8355 59.8984 21.8244C60.3769 21.8244 60.7082 21.6819 60.8925 21.3968C61.0766 21.1118 61.1686 20.6798 61.1687 20.1007V20.1007Z" fill="#040404"/>
<path d="M68.1825 16.1987V17.2945C68.8452 16.4305 69.6598 15.9984 70.6263 15.9983C72.4949 15.9983 73.4292 17.0005 73.4293 19.0049V23.2009H70.5573V19.4993C70.5573 18.6264 70.2213 18.1899 69.5494 18.1898C69.1259 18.1898 68.8337 18.31 68.6726 18.5506C68.5115 18.7911 68.431 19.1519 68.431 19.633V23.2009H65.5591V16.1987H68.1825Z" fill="#040404"/>
<path d="M75.0447 23.5617H77.9301C77.9854 23.8824 78.2524 24.0427 78.7311 24.0427C79.1452 24.0427 79.442 23.9402 79.6214 23.7354C79.8012 23.5304 79.891 23.1785 79.8907 22.6798V22.1051C79.3661 22.6129 78.6758 22.8668 77.8196 22.8668C76.8533 22.8668 76.087 22.5483 75.5209 21.9113C74.9548 21.2745 74.6717 20.4883 74.6716 19.5528C74.669 19.117 74.7294 18.6829 74.8512 18.2633C74.9688 17.862 75.1506 17.481 75.3898 17.1341C75.6427 16.7753 75.9908 16.4891 76.3975 16.3056C76.8682 16.0927 77.3833 15.9876 77.9027 15.9983C78.3318 15.9975 78.7543 16.1008 79.1315 16.2989C79.515 16.4968 79.8458 16.7782 80.0978 17.1208V16.1987H82.6247V21.8378C82.6247 22.2477 82.6131 22.5862 82.5901 22.8534C82.562 23.1489 82.5089 23.4416 82.4314 23.7287C82.3654 24.011 82.2357 24.2757 82.0516 24.5038C81.8598 24.7226 81.6366 24.9138 81.3889 25.0716C81.0675 25.2685 80.7082 25.4003 80.3327 25.4592C79.8314 25.545 79.3228 25.5853 78.8138 25.5795C77.6263 25.5795 76.7196 25.3857 76.0937 24.9981C75.4678 24.6107 75.1181 24.1319 75.0447 23.5617ZM78.6758 17.9894C77.9209 17.9894 77.5435 18.5194 77.5436 19.5796C77.5318 19.9241 77.6333 20.2633 77.8335 20.5483C77.9281 20.6775 78.055 20.7814 78.2022 20.8503C78.3495 20.9192 78.5124 20.9509 78.6758 20.9425C79.09 20.9425 79.396 20.8044 79.594 20.5283C79.8005 20.2232 79.9041 19.8638 79.8907 19.4993C79.9061 19.1188 79.8053 18.7423 79.6008 18.417C79.4075 18.1319 79.0992 17.9894 78.6758 17.9894Z" fill="#040404"/>
<path d="M84.1431 16.1987H87.0151V19.9804C87.0151 20.4437 87.098 20.7711 87.2637 20.9626C87.4293 21.1542 87.6916 21.25 88.0507 21.2499C88.4462 21.2499 88.727 21.1118 88.893 20.8356C89.0586 20.5596 89.1414 20.1365 89.1413 19.5662V16.1987H92.0133V23.2009H89.3485V22.1719C88.9986 22.6442 88.6304 22.9671 88.2439 23.1407C87.8574 23.3144 87.3558 23.4013 86.739 23.4013C85.9288 23.4013 85.2937 23.1563 84.8335 22.6664C84.373 22.1765 84.1429 21.4415 84.1431 20.4615V16.1987Z" fill="#040404"/>
<path d="M96.39 18.3502H93.6286C93.6286 17.584 93.9416 17.0005 94.5675 16.5996C95.1934 16.1987 96.1967 15.9983 97.5775 15.9983C98.0648 15.9934 98.5518 16.0247 99.0342 16.0918C99.3843 16.1365 99.7247 16.2357 100.042 16.3858C100.274 16.4985 100.487 16.6424 100.677 16.8134C100.847 16.9802 100.969 17.1877 101.029 17.4147C101.097 17.6376 101.146 17.8655 101.174 18.0963C101.2 18.3628 101.212 18.6304 101.209 18.898V22.1719C101.201 22.3477 101.222 22.5235 101.271 22.6931C101.342 22.8442 101.454 22.9735 101.595 23.0672V23.2009H98.627L98.4888 22.4526C97.7892 23.0852 96.8825 23.4014 95.7687 23.4013C95.0322 23.4013 94.4178 23.2209 93.9255 22.8602C93.4331 22.4993 93.1869 21.9759 93.1868 21.2899C93.1686 20.8486 93.3022 20.4139 93.5666 20.0539C93.8047 19.7394 94.1374 19.5037 94.5192 19.379C94.9254 19.2483 95.3407 19.1456 95.7619 19.0717C96.1727 18.9961 96.5875 18.9426 97.0045 18.9114C97.3321 18.8969 97.6547 18.8268 97.9573 18.7043C98.2103 18.593 98.3369 18.4394 98.3369 18.2433C98.3369 17.8603 98.0239 17.6687 97.3979 17.6687C96.7813 17.6687 96.4453 17.8958 96.39 18.3502ZM98.3368 20.1007C98.0358 20.225 97.7206 20.3147 97.3979 20.3679C97.0735 20.4188 96.7591 20.518 96.466 20.6619C96.3638 20.7199 96.2804 20.8045 96.2255 20.9061C96.1706 21.0077 96.1463 21.1222 96.1554 21.2365C96.1545 21.3227 96.177 21.4075 96.2206 21.4825C96.2642 21.5576 96.3275 21.6202 96.404 21.6641C96.6037 21.7798 96.8343 21.8356 97.0667 21.8244C97.5451 21.8244 97.8765 21.6819 98.0609 21.3968C98.2447 21.1118 98.3367 20.6798 98.3368 20.1007V20.1007Z" fill="#040404"/>
<path d="M102.824 23.5617H105.71C105.765 23.8824 106.032 24.0427 106.511 24.0427C106.925 24.0427 107.222 23.9402 107.401 23.7354C107.581 23.5304 107.67 23.1785 107.67 22.6797V22.1051C107.146 22.6129 106.455 22.8668 105.599 22.8668C104.633 22.8668 103.866 22.5483 103.3 21.9113C102.734 21.2745 102.451 20.4883 102.451 19.5528C102.449 19.117 102.509 18.6829 102.631 18.2633C102.748 17.862 102.93 17.481 103.169 17.1341C103.422 16.7754 103.77 16.4892 104.177 16.3056C104.648 16.0927 105.163 15.9876 105.682 15.9983C106.111 15.9975 106.534 16.1008 106.911 16.2989C107.295 16.4968 107.625 16.7782 107.877 17.1208V16.1987H110.404V21.8378C110.404 22.2477 110.393 22.5862 110.37 22.8534C110.342 23.1489 110.288 23.4416 110.211 23.7287C110.145 24.011 110.015 24.2757 109.831 24.5038C109.639 24.7227 109.416 24.9139 109.168 25.0716C108.847 25.2685 108.488 25.4003 108.112 25.4592C107.611 25.545 107.102 25.5853 106.593 25.5795C105.406 25.5795 104.499 25.3857 103.873 24.9981C103.247 24.6107 102.898 24.1319 102.824 23.5617ZM106.455 17.9894C105.7 17.9894 105.323 18.5194 105.323 19.5796C105.311 19.9241 105.413 20.2633 105.613 20.5483C105.708 20.6775 105.834 20.7814 105.982 20.8503C106.129 20.9193 106.292 20.951 106.455 20.9425C106.869 20.9425 107.176 20.8044 107.374 20.5283C107.58 20.2233 107.684 19.8638 107.67 19.4993C107.686 19.1188 107.585 18.7422 107.38 18.417C107.187 18.1319 106.879 17.9894 106.455 17.9894Z" fill="#040404"/>
<path d="M120 20.3279H114.518C114.512 20.5115 114.546 20.6944 114.617 20.8647C114.689 21.0351 114.796 21.189 114.933 21.3167C115.065 21.4431 115.223 21.5425 115.396 21.609C115.569 21.6756 115.754 21.7079 115.941 21.7042C116.456 21.7042 116.815 21.4993 117.018 21.0895H119.765C119.667 21.4673 119.485 21.8201 119.232 22.1234C118.98 22.4267 118.662 22.6735 118.302 22.8468C117.513 23.226 116.642 23.4162 115.761 23.4013C114.555 23.4013 113.568 23.0806 112.8 22.4392C112.031 21.7978 111.646 20.9069 111.646 19.7666C111.646 18.6353 112.035 17.7244 112.813 17.0339C113.591 16.3436 114.569 15.9984 115.747 15.9983C117.073 15.9983 118.113 16.388 118.868 17.1675C119.622 17.9472 120 19.0006 120 20.3279ZM114.518 18.9114H117.128C117.128 18.7524 117.094 18.595 117.029 18.4491C116.963 18.3032 116.868 18.1717 116.748 18.0629C116.634 17.946 116.495 17.8531 116.342 17.7899C116.189 17.7267 116.024 17.6945 115.858 17.6953C115.434 17.6953 115.105 17.8044 114.871 18.0227C114.751 18.1389 114.658 18.2779 114.597 18.431C114.537 18.5841 114.51 18.7477 114.518 18.9114V18.9114Z" fill="#040404"/>
</g>
<defs>
<clipPath id="clip0_1017_6509">
<rect width="120" height="40" fill="white"/>
</clipPath>
</defs>
</svg>
