<svg width="36" height="36" viewBox="0 0 36 36" fill="none" xmlns="http://www.w3.org/2000/svg">
<path d="M25.5 10.5H10.5C10.1022 10.5 9.72064 10.658 9.43934 10.9393C9.15804 11.2206 9 11.6022 9 12C9 12.3978 9.15804 12.7794 9.43934 13.0607C9.72064 13.342 10.1022 13.5 10.5 13.5H25.5C25.8978 13.5 26.2794 13.342 26.5607 13.0607C26.842 12.7794 27 12.3978 27 12C27 11.6022 26.842 11.2206 26.5607 10.9393C26.2794 10.658 25.8978 10.5 25.5 10.5ZM25.5 16.5H10.5C10.1022 16.5 9.72064 16.658 9.43934 16.9393C9.15804 17.2206 9 17.6022 9 18C9 18.3978 9.15804 18.7794 9.43934 19.0607C9.72064 19.342 10.1022 19.5 10.5 19.5H25.5C25.8978 19.5 26.2794 19.342 26.5607 19.0607C26.842 18.7794 27 18.3978 27 18C27 17.6022 26.842 17.2206 26.5607 16.9393C26.2794 16.658 25.8978 16.5 25.5 16.5ZM28.5 3H7.5C6.30653 3 5.16193 3.47411 4.31802 4.31802C3.47411 5.16193 3 6.30653 3 7.5V22.5C3 23.6935 3.47411 24.8381 4.31802 25.682C5.16193 26.5259 6.30653 27 7.5 27H24.885L30.435 32.565C30.5752 32.704 30.7414 32.814 30.9241 32.8887C31.1069 32.9633 31.3026 33.0011 31.5 33C31.6968 33.0051 31.892 32.964 32.07 32.88C32.3439 32.7675 32.5784 32.5764 32.7439 32.3308C32.9094 32.0852 32.9985 31.7961 33 31.5V7.5C33 6.30653 32.5259 5.16193 31.682 4.31802C30.8381 3.47411 29.6935 3 28.5 3ZM30 27.885L26.565 24.435C26.4248 24.296 26.2586 24.186 26.0759 24.1113C25.8931 24.0367 25.6974 23.9989 25.5 24H7.5C7.10217 24 6.72064 23.842 6.43934 23.5607C6.15804 23.2794 6 22.8978 6 22.5V7.5C6 7.10218 6.15804 6.72064 6.43934 6.43934C6.72064 6.15804 7.10217 6 7.5 6H28.5C28.8978 6 29.2794 6.15804 29.5607 6.43934C29.842 6.72064 30 7.10218 30 7.5V27.885Z" fill="#E42125"/>
</svg>
