<svg width="36" height="36" viewBox="0 0 36 36" fill="none" xmlns="http://www.w3.org/2000/svg">
<path d="M15.435 17.565C15.5744 17.7056 15.7403 17.8172 15.9231 17.8933C16.1059 17.9695 16.302 18.0087 16.5 18.0087C16.698 18.0087 16.8941 17.9695 17.0769 17.8933C17.2597 17.8172 17.4256 17.7056 17.565 17.565L23.565 11.565C23.7049 11.4251 23.8158 11.2591 23.8915 11.0764C23.9672 10.8936 24.0061 10.6978 24.0061 10.5C24.0061 10.3022 23.9672 10.1064 23.8915 9.92363C23.8158 9.74089 23.7049 9.57486 23.565 9.435C23.4251 9.29514 23.2591 9.1842 23.0764 9.10851C22.8936 9.03282 22.6978 8.99386 22.5 8.99386C22.3022 8.99386 22.1064 9.03282 21.9236 9.10851C21.7409 9.1842 21.5749 9.29514 21.435 9.435L16.5 14.385L14.565 12.435C14.2825 12.1525 13.8995 11.9939 13.5 11.9939C13.1005 11.9939 12.7175 12.1525 12.435 12.435C12.1525 12.7175 11.9939 13.1005 11.9939 13.5C11.9939 13.8995 12.1525 14.2825 12.435 14.565L15.435 17.565ZM31.5 21H30V6H31.5C31.8978 6 32.2794 5.84196 32.5607 5.56066C32.842 5.27936 33 4.89782 33 4.5C33 4.10218 32.842 3.72064 32.5607 3.43934C32.2794 3.15804 31.8978 3 31.5 3H4.5C4.10218 3 3.72064 3.15804 3.43934 3.43934C3.15804 3.72064 3 4.10218 3 4.5C3 4.89782 3.15804 5.27936 3.43934 5.56066C3.72064 5.84196 4.10218 6 4.5 6H6V21H4.5C4.10218 21 3.72064 21.158 3.43934 21.4393C3.15804 21.7206 3 22.1022 3 22.5C3 22.8978 3.15804 23.2794 3.43934 23.5607C3.72064 23.842 4.10218 24 4.5 24H16.5V25.725L9.675 30.225C9.395 30.3983 9.17982 30.659 9.06265 30.9667C8.94549 31.2745 8.93285 31.6122 9.02669 31.9279C9.12053 32.2435 9.31564 32.5195 9.5819 32.7133C9.84816 32.907 10.1708 33.0078 10.5 33C10.7949 33.0034 11.0834 32.9142 11.325 32.745L16.5 29.325V31.5C16.5 31.8978 16.658 32.2794 16.9393 32.5607C17.2206 32.842 17.6022 33 18 33C18.3978 33 18.7794 32.842 19.0607 32.5607C19.342 32.2794 19.5 31.8978 19.5 31.5V29.325L24.675 32.745C24.9166 32.9142 25.2051 33.0034 25.5 33C25.8205 32.9975 26.1317 32.8925 26.3882 32.7002C26.6446 32.508 26.8327 32.2387 26.9249 31.9318C27.0172 31.6249 27.0087 31.2965 26.9007 30.9947C26.7928 30.693 26.591 30.4337 26.325 30.255L19.5 25.755V24H31.5C31.8978 24 32.2794 23.842 32.5607 23.5607C32.842 23.2794 33 22.8978 33 22.5C33 22.1022 32.842 21.7206 32.5607 21.4393C32.2794 21.158 31.8978 21 31.5 21ZM27 21H9V6H27V21Z" fill="#78258D"/>
</svg>
